<?xml version="1.0" encoding="UTF-8"?>
<svg id="Livello_1" data-name="Livello 1" xmlns="http://www.w3.org/2000/svg" viewBox="0 0 688 144">
  <defs>
    <style>
      .cls-1 {
        fill: #002833;
      }
    </style>
  </defs>
  <path class="cls-1" d="M47.88,58.66c-7.84.33-14.16,2.59-18.85,6.66-5.22,4.54-7.89,11.39-7.89,20.37v56.24H.56v-56.24c0-15.09,4.44-26.59,13.2-34.11,8.44-7.23,19.92-11.08,34.12-11.44v18.54h0Z"/>
  <path class="cls-1" d="M47.88,40.13v18.54c-7.84.33-14.16,2.59-18.85,6.66-5.22,4.54-7.89,11.39-7.89,20.37v56.24H.56v-56.24c0-15.09,4.44-26.59,13.2-34.11,8.44-7.23,19.92-11.08,34.12-11.44h0Z"/>
  <path class="cls-1" d="M129.32,116.47c-5.63,5.87-13.24,8.84-22.6,8.84s-16.99-2.97-22.69-8.82c-5.7-5.85-8.57-14.02-8.57-24.33s2.88-18.49,8.57-24.32c5.7-5.85,13.33-8.82,22.69-8.82s16.97,2.97,22.6,8.84c5.61,5.83,8.44,14,8.44,24.29s-2.83,18.49-8.44,24.32h0ZM154.66,71.03c-2.43-6.34-5.97-11.85-10.45-16.35-4.49-4.49-10-8.02-16.35-10.45-6.41-2.48-13.58-3.73-21.35-3.73s-14.9,1.25-21.21,3.73c-6.3,2.46-11.77,5.94-16.26,10.36-4.49,4.42-8.02,9.85-10.45,16.15-2.48,6.32-3.73,13.47-3.73,21.21s1.25,14.94,3.73,21.33c2.46,6.38,5.9,11.88,10.28,16.39,4.35,4.49,9.65,7.99,15.72,10.45,6.12,2.46,12.87,3.68,20.05,3.68s13.49-1.12,18.4-3.35c4.87-2.21,8.49-4.78,10.76-7.68l3.98-5.11v14.27h20.61v-49.54c0-7.77-1.25-14.94-3.73-21.34h0Z"/>
  <path class="cls-1" d="M223.95,58.66c-7.82.33-14.16,2.59-18.85,6.66-5.22,4.54-7.89,11.39-7.89,20.37v56.24h-20.59v-56.24c0-15.09,4.44-26.59,13.22-34.11,8.42-7.23,19.9-11.08,34.11-11.44v18.54h0Z"/>
  <path class="cls-1" d="M223.95,40.13v18.54c-7.82.33-14.16,2.59-18.85,6.66-5.22,4.54-7.89,11.39-7.89,20.37v56.24h-20.59v-56.24c0-15.09,4.44-26.59,13.22-34.11,8.42-7.23,19.9-11.08,34.11-11.44h0Z"/>
  <path class="cls-1" d="M334.65,91.95c0,1.5-.03,2.88-.09,4.15-.04.65-.09,1.29-.13,1.96h-56.48v-18.51h34.57l-1.36-3.11c-2.39-5.56-6.1-9.92-11.01-12.93-4.87-2.99-10.69-4.51-17.35-4.51s-12.48,1.52-17.26,4.54c-1.52.94-3.02,2.08-4.29,3.31-.18.16-4.02,3.82-6.58,9.56-4.27,9.46-2.63,20.99-2.03,24.32,1.47,7.73,4.89,13.82,10.16,18.13,5.27,4.27,11.99,6.45,20.01,6.45,10.85,0,19.18-3.79,24.75-11.28h23.03c-3.44,8.69-9,15.74-16.57,20.99-8.42,5.83-18.85,8.77-31,8.77-7.75,0-14.94-1.25-21.33-3.71-6.37-2.46-11.86-5.96-16.35-10.45-4.49-4.49-8.02-10-10.48-16.36-2.46-6.38-3.71-13.55-3.71-21.33s1.25-14.89,3.71-21.21c2.46-6.3,5.97-11.72,10.45-16.15,4.49-4.42,10-7.9,16.37-10.36,6.38-2.48,13.58-3.73,21.33-3.73s14.9,1.25,21.24,3.73c6.3,2.46,11.77,5.94,16.26,10.36,4.49,4.42,8,9.85,10.45,16.15,2.46,6.32,3.71,13.47,3.71,21.21v.02Z"/>
  <path class="cls-1" d="M423.41,116.47c-5.63,5.87-13.24,8.84-22.6,8.84s-16.99-2.97-22.69-8.82c-5.7-5.85-8.57-14.02-8.57-24.33s2.88-18.49,8.57-24.32c5.7-5.85,13.33-8.82,22.69-8.82s16.97,2.97,22.6,8.84c5.61,5.83,8.46,14,8.46,24.29s-2.86,18.49-8.46,24.32h0ZM448.75,71.03c-2.46-6.34-5.98-11.85-10.48-16.35-4.49-4.49-9.98-7.99-16.35-10.45-6.38-2.48-13.58-3.73-21.33-3.73s-14.91,1.25-21.24,3.73c-6.3,2.46-11.77,5.94-16.26,10.36-4.49,4.42-8,9.85-10.45,16.15s-3.71,13.44-3.71,21.21,1.25,14.96,3.71,21.33c2.46,6.38,5.92,11.9,10.28,16.39,4.35,4.49,9.65,7.99,15.72,10.45,6.12,2.46,12.87,3.68,20.08,3.68s13.47-1.12,18.38-3.35c4.87-2.19,8.49-4.78,10.76-7.68l3.99-5.11v14.27h20.59v-49.54c0-7.77-1.25-14.94-3.71-21.34h.02Z"/>
  <path class="cls-1" d="M518.04,58.66c-7.84.33-14.18,2.59-18.87,6.66-5.22,4.54-7.86,11.39-7.86,20.37v56.24h-20.61v-56.24c0-15.09,4.44-26.59,13.22-34.11,8.44-7.23,19.9-11.08,34.12-11.44v18.54h0Z"/>
  <path class="cls-1" d="M518.04,40.13v18.54c-7.84.33-14.18,2.59-18.87,6.66-5.22,4.54-7.86,11.39-7.86,20.37v56.24h-20.61v-56.24c0-15.09,4.44-26.59,13.22-34.11,8.44-7.23,19.9-11.08,34.12-11.44h0Z"/>
  <path class="cls-1" d="M581.54,143.37c-15.5-.36-27.4-4.4-35.4-12.01-8.33-7.93-12.57-19.78-12.57-35.23V.21h20.61v41.77h23.8v18.51h-23.8v35.43c0,10.18,2.32,17.64,6.93,22.15,4.27,4.2,11.12,6.45,20.44,6.77v18.54h0Z"/>
  <path class="cls-1" d="M581.54,124.84v18.54c-15.5-.36-27.4-4.4-35.4-12.01-8.33-7.93-12.57-19.78-12.57-35.23V.21h20.61v41.77h23.8v18.51h-23.8v35.43c0,10.18,2.32,17.64,6.93,22.15,4.27,4.2,11.12,6.45,20.44,6.77h0Z"/>
  <path class="cls-1" d="M687.44,141.92h-20.61v-59.37c0-4.08-.69-7.63-2.1-10.56-1.36-2.9-3.24-5.4-5.56-7.41-2.32-2.01-5.05-3.51-8.13-4.42-5.97-1.79-12.88-1.79-18.82,0-3.08.92-5.81,2.41-8.13,4.42-2.32,2.01-4.2,4.51-5.56,7.41-1.4,2.92-2.1,6.47-2.1,10.56v59.37h-20.61V.21h20.61v51.92l3.71-3.28c1.83-1.63,3.59-2.95,5.36-4.06,4.89-3.11,11.45-4.67,19.48-4.67,7.41,0,13.84,1.36,19.14,4.04,5.34,2.7,9.78,6.16,13.18,10.27,3.44,4.15,6.01,8.73,7.66,13.62,1.65,4.89,2.5,9.58,2.5,13.89v59.99h0Z"/>
  <path class="cls-1" d="M687.44,81.93v59.99h-20.61v-59.37c0-4.08-.69-7.63-2.1-10.56-1.36-2.9-3.24-5.4-5.56-7.41-2.32-2.01-5.05-3.51-8.13-4.42-5.97-1.79-12.88-1.79-18.82,0-3.08.92-5.81,2.41-8.13,4.42-2.32,2.01-4.2,4.51-5.56,7.41-1.4,2.92-2.1,6.47-2.1,10.56v59.37h-20.61V.21h20.61v51.92l3.71-3.28c1.83-1.63,3.59-2.95,5.36-4.06,4.89-3.11,11.45-4.67,19.48-4.67,7.41,0,13.84,1.36,19.14,4.04,5.34,2.7,9.78,6.16,13.18,10.27,3.44,4.15,6.01,8.73,7.66,13.62,1.65,4.89,2.5,9.58,2.5,13.89h0Z"/>
</svg>